<svg viewBox="0 0 18 19" fill="none" xmlns="http://www.w3.org/2000/svg">
    <path d="M11.6364 16.9547H1.45455V6.77291H3.46182V5.31836H1.45455C0.647273 5.31836 0 5.97291 0 6.77291V16.9547C0 17.7547 0.647273 18.4093 1.45455 18.4093H11.6364C12.4364 18.4093 13.0909 17.7547 13.0909 16.9547V13.922H11.6364V16.9547ZM8.00001 5.31836V6.77291H10.6109L3.46182 13.922L4.48728 14.9475L11.6364 7.79836V10.4093H13.0909V5.31836H8.00001Z" fill="#050038"/>
    <path fill-rule="evenodd" clip-rule="evenodd" d="M4.90918 0.818182C4.90918 0.366313 5.27549 0 5.72736 0H17.1819C17.6338 0 18.0001 0.366313 18.0001 0.818182V12.2727C18.0001 12.7246 17.6338 13.0909 17.1819 13.0909H11.2503V11.4546H16.3637V1.63636H6.54554L6.54554 7.1591H4.90918L4.90918 0.818182Z" fill="#050038"/>
</svg>
