<svg viewBox="0 0 18 19" fill="none" xmlns="http://www.w3.org/2000/svg">
    <path d="M17.2505 9.59375C17.2505 8.915 17.1942 8.42 17.0735 7.90625H9.16846V10.9685H13.808C13.715 11.729 13.2102 12.875 12.0875 13.6452L12.0717 13.7473L14.5707 15.6447L14.7432 15.6612C16.3347 14.2227 17.2505 12.1048 17.2505 9.59375Z" fill="#4285F4"/>
    <path d="M9.16895 17.6598C11.4414 17.6598 13.3494 16.9263 14.7437 15.661L12.0872 13.645C11.3762 14.131 10.4222 14.47 9.16895 14.47C8.11254 14.4701 7.0826 14.1395 6.22364 13.5245C5.36468 12.9096 4.71979 12.0411 4.37945 11.041L4.28045 11.0493L1.6817 13.0203L1.64795 13.1133C3.03245 15.808 5.87645 17.6598 9.16895 17.6598Z" fill="#34A853"/>
    <path d="M4.38049 11.0393C4.19602 10.5151 4.10045 9.96377 4.09774 9.40806C4.09774 8.83956 4.20124 8.28981 4.36849 7.77681L4.36399 7.66656L1.73299 5.66406L1.64674 5.70456C1.05858 6.85054 0.751382 8.11996 0.750488 9.40806C0.750488 10.7371 1.07749 11.9933 1.64824 13.1116L4.38049 11.0393Z" fill="#FBBC05"/>
    <path d="M9.16895 4.34795C10.7499 4.34795 11.8157 5.01695 12.4239 5.57645L14.7992 3.3032C13.3404 1.9742 11.4414 1.1582 9.16895 1.1582C5.8757 1.1582 3.03245 3.00995 1.64795 5.7047L4.37045 7.77695C4.71371 6.77695 5.36058 5.90904 6.2208 5.29433C7.08102 4.67962 8.11167 4.34877 9.16895 4.34795Z" fill="#EB4335"/>
</svg>
