<svg viewBox="0 0 18 18" fill="none" xmlns="http://www.w3.org/2000/svg">
    <g clip-path="url(#clip0_7792_43973)">
        <path fill-rule="evenodd" clip-rule="evenodd" d="M17.25 9.18359C17.25 8.50484 17.1937 8.00984 17.073 7.49609H9.16797V10.5583H13.8075C13.7145 11.3188 13.2097 12.4648 12.087 13.2351L12.0712 13.3371L14.5702 15.2346L14.7427 15.2511C16.3342 13.8126 17.25 11.6946 17.25 9.18359Z" fill="white"/>
        <path fill-rule="evenodd" clip-rule="evenodd" d="M9.16846 17.2496C11.441 17.2496 13.349 16.5161 14.7432 15.2509L12.0867 13.2349C11.3757 13.7209 10.4217 14.0599 9.16846 14.0599C8.11205 14.06 7.08211 13.7293 6.22315 13.1144C5.36419 12.4994 4.7193 11.6309 4.37896 10.6309L4.27996 10.6391L1.68121 12.6101L1.64746 12.7031C3.03196 15.3979 5.87596 17.2496 9.16846 17.2496Z" fill="white"/>
        <path fill-rule="evenodd" clip-rule="evenodd" d="M4.38 10.6311C4.19553 10.1069 4.09996 9.55556 4.09725 8.99986C4.09725 8.43136 4.20075 7.88161 4.368 7.36861L4.3635 7.25836L1.7325 5.25586L1.64625 5.29636C1.05809 6.44234 0.750894 7.71176 0.75 8.99986C0.75 10.3289 1.077 11.5851 1.64775 12.7034L4.38 10.6311Z" fill="white"/>
        <path fill-rule="evenodd" clip-rule="evenodd" d="M9.16846 3.93975C10.7495 3.93975 11.8152 4.60875 12.4235 5.16825L14.7987 2.895C13.34 1.566 11.441 0.75 9.16846 0.75C5.87521 0.75 3.03196 2.60175 1.64746 5.2965L4.36996 7.36875C4.71323 6.36874 5.3601 5.50084 6.22031 4.88613C7.08053 4.27142 8.11118 3.94057 9.16846 3.93975Z" fill="white"/>
    </g>
    <defs>
        <clipPath id="clip0_7792_43973">
            <rect width="18" height="18" fill="white"/>
        </clipPath>
    </defs>
</svg>
